<mxfile host="app.diagrams.net" modified="2023-02-23T14:06:33.790Z" agent="5.0 (Windows NT 10.0; Win64; x64) AppleWebKit/537.36 (KHTML, like Gecko) Chrome/110.0.0.0 Safari/537.36" etag="fav53d9sQhkzaEFpQRHS" version="20.8.23" type="github">
  <diagram id="C5RBs43oDa-KdzZeNtuy" name="Page-1">
    <mxGraphModel dx="2261" dy="796" grid="1" gridSize="10" guides="1" tooltips="1" connect="1" arrows="1" fold="1" page="1" pageScale="1" pageWidth="827" pageHeight="1169" math="0" shadow="0">
      <root>
        <mxCell id="WIyWlLk6GJQsqaUBKTNV-0" />
        <mxCell id="WIyWlLk6GJQsqaUBKTNV-1" parent="WIyWlLk6GJQsqaUBKTNV-0" />
        <mxCell id="hZMOzfbwOO7N0Zd-26OD-0" value="START" style="ellipse;whiteSpace=wrap;html=1;" vertex="1" parent="WIyWlLk6GJQsqaUBKTNV-1">
          <mxGeometry x="100" y="40" width="120" height="80" as="geometry" />
        </mxCell>
        <mxCell id="hZMOzfbwOO7N0Zd-26OD-1" value="" style="endArrow=classic;html=1;rounded=0;exitX=0.5;exitY=1;exitDx=0;exitDy=0;" edge="1" parent="WIyWlLk6GJQsqaUBKTNV-1" source="hZMOzfbwOO7N0Zd-26OD-0">
          <mxGeometry width="50" height="50" relative="1" as="geometry">
            <mxPoint x="160" y="140" as="sourcePoint" />
            <mxPoint x="159.5" y="190" as="targetPoint" />
          </mxGeometry>
        </mxCell>
        <mxCell id="hZMOzfbwOO7N0Zd-26OD-2" value="a =&amp;nbsp;&lt;br&gt;i = 0&lt;br&gt;min = a[i]&lt;br&gt;max = a[i]" style="rounded=0;whiteSpace=wrap;html=1;" vertex="1" parent="WIyWlLk6GJQsqaUBKTNV-1">
          <mxGeometry x="100" y="190" width="120" height="60" as="geometry" />
        </mxCell>
        <mxCell id="hZMOzfbwOO7N0Zd-26OD-3" value="" style="endArrow=classic;html=1;rounded=0;exitX=0.5;exitY=1;exitDx=0;exitDy=0;entryX=0.5;entryY=0;entryDx=0;entryDy=0;" edge="1" parent="WIyWlLk6GJQsqaUBKTNV-1" source="hZMOzfbwOO7N0Zd-26OD-2" target="hZMOzfbwOO7N0Zd-26OD-4">
          <mxGeometry width="50" height="50" relative="1" as="geometry">
            <mxPoint x="160" y="260" as="sourcePoint" />
            <mxPoint x="160" y="300" as="targetPoint" />
          </mxGeometry>
        </mxCell>
        <mxCell id="hZMOzfbwOO7N0Zd-26OD-7" value="" style="edgeStyle=orthogonalEdgeStyle;rounded=0;orthogonalLoop=1;jettySize=auto;html=1;entryX=1;entryY=0.5;entryDx=0;entryDy=0;" edge="1" parent="WIyWlLk6GJQsqaUBKTNV-1" source="hZMOzfbwOO7N0Zd-26OD-4" target="hZMOzfbwOO7N0Zd-26OD-10">
          <mxGeometry relative="1" as="geometry">
            <mxPoint x="20" y="355" as="targetPoint" />
            <Array as="points" />
          </mxGeometry>
        </mxCell>
        <mxCell id="hZMOzfbwOO7N0Zd-26OD-8" value="TAK" style="edgeLabel;html=1;align=center;verticalAlign=middle;resizable=0;points=[];" vertex="1" connectable="0" parent="hZMOzfbwOO7N0Zd-26OD-7">
          <mxGeometry x="-0.2" relative="1" as="geometry">
            <mxPoint as="offset" />
          </mxGeometry>
        </mxCell>
        <mxCell id="hZMOzfbwOO7N0Zd-26OD-30" value="" style="edgeStyle=orthogonalEdgeStyle;rounded=0;orthogonalLoop=1;jettySize=auto;html=1;" edge="1" parent="WIyWlLk6GJQsqaUBKTNV-1" source="hZMOzfbwOO7N0Zd-26OD-4" target="hZMOzfbwOO7N0Zd-26OD-29">
          <mxGeometry relative="1" as="geometry" />
        </mxCell>
        <mxCell id="hZMOzfbwOO7N0Zd-26OD-4" value="i &amp;lt; a. długość" style="rhombus;whiteSpace=wrap;html=1;" vertex="1" parent="WIyWlLk6GJQsqaUBKTNV-1">
          <mxGeometry x="115" y="310" width="90" height="90" as="geometry" />
        </mxCell>
        <mxCell id="hZMOzfbwOO7N0Zd-26OD-13" value="" style="edgeStyle=orthogonalEdgeStyle;rounded=0;orthogonalLoop=1;jettySize=auto;html=1;" edge="1" parent="WIyWlLk6GJQsqaUBKTNV-1" source="hZMOzfbwOO7N0Zd-26OD-10" target="hZMOzfbwOO7N0Zd-26OD-11">
          <mxGeometry relative="1" as="geometry">
            <Array as="points">
              <mxPoint x="-20" y="410" />
              <mxPoint x="-20" y="410" />
            </Array>
          </mxGeometry>
        </mxCell>
        <mxCell id="hZMOzfbwOO7N0Zd-26OD-15" value="TAK" style="edgeLabel;html=1;align=center;verticalAlign=middle;resizable=0;points=[];" vertex="1" connectable="0" parent="hZMOzfbwOO7N0Zd-26OD-13">
          <mxGeometry x="-0.2842" y="1" relative="1" as="geometry">
            <mxPoint as="offset" />
          </mxGeometry>
        </mxCell>
        <mxCell id="hZMOzfbwOO7N0Zd-26OD-10" value="min &amp;lt; a[i]" style="rhombus;whiteSpace=wrap;html=1;" vertex="1" parent="WIyWlLk6GJQsqaUBKTNV-1">
          <mxGeometry x="-60" y="315" width="80" height="80" as="geometry" />
        </mxCell>
        <mxCell id="hZMOzfbwOO7N0Zd-26OD-11" value="min = a[i]" style="rounded=0;whiteSpace=wrap;html=1;" vertex="1" parent="WIyWlLk6GJQsqaUBKTNV-1">
          <mxGeometry x="-80" y="470" width="120" height="60" as="geometry" />
        </mxCell>
        <mxCell id="hZMOzfbwOO7N0Zd-26OD-25" value="" style="edgeStyle=orthogonalEdgeStyle;rounded=0;orthogonalLoop=1;jettySize=auto;html=1;" edge="1" parent="WIyWlLk6GJQsqaUBKTNV-1" source="hZMOzfbwOO7N0Zd-26OD-16" target="hZMOzfbwOO7N0Zd-26OD-20">
          <mxGeometry relative="1" as="geometry" />
        </mxCell>
        <mxCell id="hZMOzfbwOO7N0Zd-26OD-16" value="max &amp;lt; a[i]" style="rhombus;whiteSpace=wrap;html=1;" vertex="1" parent="WIyWlLk6GJQsqaUBKTNV-1">
          <mxGeometry x="-260" y="315" width="80" height="80" as="geometry" />
        </mxCell>
        <mxCell id="hZMOzfbwOO7N0Zd-26OD-20" value="max = a[i]" style="rounded=0;whiteSpace=wrap;html=1;" vertex="1" parent="WIyWlLk6GJQsqaUBKTNV-1">
          <mxGeometry x="-280" y="470" width="120" height="60" as="geometry" />
        </mxCell>
        <mxCell id="hZMOzfbwOO7N0Zd-26OD-22" value="" style="endArrow=classic;html=1;rounded=0;entryX=1;entryY=0.5;entryDx=0;entryDy=0;exitX=0;exitY=0.5;exitDx=0;exitDy=0;" edge="1" parent="WIyWlLk6GJQsqaUBKTNV-1" source="hZMOzfbwOO7N0Zd-26OD-11" target="hZMOzfbwOO7N0Zd-26OD-16">
          <mxGeometry width="50" height="50" relative="1" as="geometry">
            <mxPoint x="-140" y="510" as="sourcePoint" />
            <mxPoint x="-120" y="345" as="targetPoint" />
            <Array as="points">
              <mxPoint x="-130" y="500" />
              <mxPoint x="-130" y="355" />
            </Array>
          </mxGeometry>
        </mxCell>
        <mxCell id="hZMOzfbwOO7N0Zd-26OD-23" value="NIE" style="edgeLabel;html=1;align=center;verticalAlign=middle;resizable=0;points=[];" vertex="1" connectable="0" parent="hZMOzfbwOO7N0Zd-26OD-22">
          <mxGeometry x="0.1673" relative="1" as="geometry">
            <mxPoint as="offset" />
          </mxGeometry>
        </mxCell>
        <mxCell id="hZMOzfbwOO7N0Zd-26OD-26" value="" style="endArrow=classic;html=1;rounded=0;" edge="1" parent="WIyWlLk6GJQsqaUBKTNV-1">
          <mxGeometry width="50" height="50" relative="1" as="geometry">
            <mxPoint x="-260" y="354.5" as="sourcePoint" />
            <mxPoint x="-320" y="354.5" as="targetPoint" />
          </mxGeometry>
        </mxCell>
        <mxCell id="hZMOzfbwOO7N0Zd-26OD-27" value="NIE" style="edgeLabel;html=1;align=center;verticalAlign=middle;resizable=0;points=[];" vertex="1" connectable="0" parent="hZMOzfbwOO7N0Zd-26OD-26">
          <mxGeometry x="-0.3333" y="2" relative="1" as="geometry">
            <mxPoint as="offset" />
          </mxGeometry>
        </mxCell>
        <mxCell id="hZMOzfbwOO7N0Zd-26OD-28" value="" style="endArrow=classic;html=1;rounded=0;" edge="1" parent="WIyWlLk6GJQsqaUBKTNV-1">
          <mxGeometry width="50" height="50" relative="1" as="geometry">
            <mxPoint x="-280" y="499.5" as="sourcePoint" />
            <mxPoint x="160" y="280" as="targetPoint" />
            <Array as="points">
              <mxPoint x="-320" y="500" />
              <mxPoint x="-320" y="280" />
            </Array>
          </mxGeometry>
        </mxCell>
        <mxCell id="hZMOzfbwOO7N0Zd-26OD-29" value="min = a[i]&lt;br&gt;max = a[i]" style="rounded=0;whiteSpace=wrap;html=1;" vertex="1" parent="WIyWlLk6GJQsqaUBKTNV-1">
          <mxGeometry x="270" y="325" width="120" height="60" as="geometry" />
        </mxCell>
      </root>
    </mxGraphModel>
  </diagram>
</mxfile>
